<svg width="64" height="64" viewBox="0 0 64 64" fill="none" xmlns="http://www.w3.org/2000/svg">
<path d="M3.576 60.4903C3.024 60.4903 2.528 60.3942 2.088 60.2022C1.656 60.0022 1.316 59.7302 1.068 59.3862C0.82 59.0342 0.692 58.6302 0.684 58.1742H1.848C1.888 58.5662 2.048 58.8982 2.328 59.1702C2.616 59.4342 3.032 59.5662 3.576 59.5662C4.096 59.5662 4.504 59.4382 4.8 59.1822C5.104 58.9182 5.256 58.5822 5.256 58.1742C5.256 57.8542 5.168 57.5942 4.992 57.3942C4.816 57.1942 4.596 57.0422 4.332 56.9382C4.068 56.8342 3.712 56.7222 3.264 56.6022C2.712 56.4582 2.268 56.3142 1.932 56.1702C1.604 56.0262 1.32 55.8022 1.08 55.4982C0.848 55.1862 0.732 54.7702 0.732 54.2502C0.732 53.7942 0.848 53.3902 1.08 53.0382C1.312 52.6862 1.636 52.4142 2.052 52.2222C2.476 52.0302 2.96 51.9342 3.504 51.9342C4.288 51.9342 4.928 52.1302 5.424 52.5222C5.928 52.9142 6.212 53.4342 6.276 54.0822H5.076C5.036 53.7622 4.868 53.4822 4.572 53.2422C4.276 52.9942 3.884 52.8702 3.396 52.8702C2.94 52.8702 2.568 52.9902 2.28 53.2302C1.992 53.4622 1.848 53.7902 1.848 54.2142C1.848 54.5182 1.932 54.7662 2.1 54.9582C2.276 55.1502 2.488 55.2982 2.736 55.4022C2.992 55.4982 3.348 55.6102 3.804 55.7382C4.356 55.8902 4.8 56.0422 5.136 56.1942C5.472 56.3382 5.76 56.5662 6 56.8783C6.24 57.1822 6.36 57.5982 6.36 58.1262C6.36 58.5342 6.252 58.9182 6.036 59.2782C5.82 59.6382 5.5 59.9302 5.076 60.1542C4.652 60.3782 4.152 60.4903 3.576 60.4903ZM9.29897 54.7302V58.6062C9.29897 58.9262 9.36697 59.1542 9.50297 59.2902C9.63897 59.4182 9.87497 59.4822 10.211 59.4822H11.015V60.4062H10.031C9.42297 60.4062 8.96697 60.2662 8.66297 59.9862C8.35897 59.7062 8.20697 59.2462 8.20697 58.6062V54.7302H7.35497V53.8302H8.20697V52.1742H9.29897V53.8302H11.015V54.7302H9.29897ZM15.2061 60.5143C14.5901 60.5143 14.0301 60.3743 13.5261 60.0942C13.0301 59.8142 12.6381 59.4182 12.3501 58.9062C12.0701 58.3862 11.9301 57.7862 11.9301 57.1062C11.9301 56.4342 12.0741 55.8422 12.3621 55.3302C12.6581 54.8102 13.0581 54.4142 13.5621 54.1422C14.0661 53.8622 14.6301 53.7222 15.2541 53.7222C15.8781 53.7222 16.4421 53.8622 16.9461 54.1422C17.4501 54.4142 17.8461 54.8062 18.1341 55.3182C18.4301 55.8302 18.5781 56.4262 18.5781 57.1062C18.5781 57.7862 18.4261 58.3862 18.1221 58.9062C17.8261 59.4182 17.4221 59.8142 16.9101 60.0942C16.3981 60.3743 15.8301 60.5143 15.2061 60.5143ZM15.2061 59.5542C15.5981 59.5542 15.9661 59.4622 16.3101 59.2782C16.6541 59.0942 16.9301 58.8182 17.1381 58.4502C17.3541 58.0822 17.4621 57.6342 17.4621 57.1062C17.4621 56.5782 17.3581 56.1302 17.1501 55.7622C16.9421 55.3942 16.6701 55.1222 16.3341 54.9462C15.9981 54.7622 15.6341 54.6702 15.2421 54.6702C14.8421 54.6702 14.4741 54.7622 14.1381 54.9462C13.8101 55.1222 13.5461 55.3942 13.3461 55.7622C13.1461 56.1302 13.0461 56.5782 13.0461 57.1062C13.0461 57.6422 13.1421 58.0942 13.3341 58.4622C13.5341 58.8302 13.7981 59.1062 14.1261 59.2902C14.4541 59.4662 14.8141 59.5542 15.2061 59.5542ZM21.1058 54.8982C21.2978 54.5222 21.5698 54.2302 21.9218 54.0222C22.2818 53.8142 22.7178 53.7102 23.2298 53.7102V54.8382H22.9418C21.7178 54.8382 21.1058 55.5022 21.1058 56.8302V60.4062H20.0138V53.8302H21.1058V54.8982ZM30.1544 53.8302L26.1944 63.5023H25.0664L26.3624 60.3342L23.7104 53.8302H24.9224L26.9864 59.1582L29.0264 53.8302H30.1544ZM36.4001 52.0422V52.9302H34.1201V60.4062H33.0281V52.9302H30.7361V52.0422H36.4001ZM38.3083 52.7622C38.1003 52.7622 37.9243 52.6902 37.7803 52.5462C37.6363 52.4022 37.5643 52.2262 37.5643 52.0182C37.5643 51.8102 37.6363 51.6342 37.7803 51.4902C37.9243 51.3462 38.1003 51.2742 38.3083 51.2742C38.5083 51.2742 38.6763 51.3462 38.8123 51.4902C38.9563 51.6342 39.0283 51.8102 39.0283 52.0182C39.0283 52.2262 38.9563 52.4022 38.8123 52.5462C38.6763 52.6902 38.5083 52.7622 38.3083 52.7622ZM38.8363 53.8302V60.4062H37.7443V53.8302H38.8363ZM41.7894 51.5262V60.4062H40.6974V51.5262H41.7894ZM44.2146 52.7622C44.0066 52.7622 43.8306 52.6902 43.6866 52.5462C43.5426 52.4022 43.4706 52.2262 43.4706 52.0182C43.4706 51.8102 43.5426 51.6342 43.6866 51.4902C43.8306 51.3462 44.0066 51.2742 44.2146 51.2742C44.4146 51.2742 44.5826 51.3462 44.7186 51.4902C44.8626 51.6342 44.9346 51.8102 44.9346 52.0182C44.9346 52.2262 44.8626 52.4022 44.7186 52.5462C44.5826 52.6902 44.4146 52.7622 44.2146 52.7622ZM44.7426 53.8302V60.4062H43.6506V53.8302H44.7426ZM49.8077 53.7102C50.6077 53.7102 51.2557 53.9542 51.7517 54.4422C52.2477 54.9222 52.4957 55.6182 52.4957 56.5302V60.4062H51.4157V56.6862C51.4157 56.0302 51.2517 55.5302 50.9237 55.1862C50.5957 54.8342 50.1477 54.6582 49.5797 54.6582C49.0037 54.6582 48.5437 54.8382 48.1997 55.1982C47.8637 55.5582 47.6957 56.0822 47.6957 56.7702V60.4062H46.6037V53.8302H47.6957V54.7662C47.9117 54.4302 48.2037 54.1702 48.5717 53.9862C48.9477 53.8022 49.3597 53.7102 49.8077 53.7102ZM56.9915 53.7222C57.5595 53.7222 58.0555 53.8462 58.4795 54.0942C58.9115 54.3422 59.2315 54.6542 59.4395 55.0302V53.8302H60.5435V60.5503C60.5435 61.1503 60.4155 61.6823 60.1595 62.1463C59.9035 62.6183 59.5355 62.9863 59.0555 63.2503C58.5835 63.5143 58.0315 63.6463 57.3995 63.6463C56.5355 63.6463 55.8155 63.4423 55.2395 63.0343C54.6635 62.6263 54.3235 62.0703 54.2195 61.3663H55.2995C55.4195 61.7663 55.6675 62.0863 56.0435 62.3263C56.4195 62.5743 56.8715 62.6983 57.3995 62.6983C57.9995 62.6983 58.4875 62.5103 58.8635 62.1343C59.2475 61.7583 59.4395 61.2303 59.4395 60.5503V59.1702C59.2235 59.5542 58.9035 59.8742 58.4795 60.1302C58.0555 60.3862 57.5595 60.5143 56.9915 60.5143C56.4075 60.5143 55.8755 60.3703 55.3955 60.0822C54.9235 59.7942 54.5515 59.3902 54.2795 58.8702C54.0075 58.3502 53.8715 57.7582 53.8715 57.0942C53.8715 56.4222 54.0075 55.8342 54.2795 55.3302C54.5515 54.8182 54.9235 54.4222 55.3955 54.1422C55.8755 53.8622 56.4075 53.7222 56.9915 53.7222ZM59.4395 57.1062C59.4395 56.6102 59.3395 56.1782 59.1395 55.8102C58.9395 55.4422 58.6675 55.1622 58.3235 54.9702C57.9875 54.7702 57.6155 54.6702 57.2075 54.6702C56.7995 54.6702 56.4275 54.7662 56.0915 54.9582C55.7555 55.1502 55.4875 55.4302 55.2875 55.7982C55.0875 56.1662 54.9875 56.5982 54.9875 57.0942C54.9875 57.5982 55.0875 58.0382 55.2875 58.4142C55.4875 58.7822 55.7555 59.0662 56.0915 59.2662C56.4275 59.4582 56.7995 59.5542 57.2075 59.5542C57.6155 59.5542 57.9875 59.4582 58.3235 59.2662C58.6675 59.0662 58.9395 58.7822 59.1395 58.4142C59.3395 58.0382 59.4395 57.6022 59.4395 57.1062Z" fill="#F28500"/>
<rect x="8.25821" width="47.4839" height="44.5625" rx="18" fill="#F28500"/>
<path d="M41.2905 31H33.0324V25.1875H41.2905V31ZM30.9679 31H22.7098V21.3125H30.9679V31ZM41.2905 23.25H33.0324V13.5625H41.2905V23.25ZM30.9679 19.375H22.7098V13.5625H30.9679V19.375Z" fill="white"/>
</svg>
